<svg xmlns="http://www.w3.org/2000/svg" width="24.53" height="24.53" viewBox="0 0 24.53 24.53"><defs><style>.a{fill:#a2a3b7;}</style></defs><g transform="translate(9.812)"><path class="a" d="M194.453,0a2.453,2.453,0,1,0,2.453,2.453A2.453,2.453,0,0,0,194.453,0Zm0,4.088a1.635,1.635,0,1,1,1.635-1.635A1.635,1.635,0,0,1,194.453,4.088Z" transform="translate(-192)"/></g><g transform="translate(8.586 5.315)"><path class="a" d="M173.315,104h-.1l-.086.043a3.259,3.259,0,0,1-2.905,0l-.086-.043h-.1A2.047,2.047,0,0,0,168,106.044V108.5a1.226,1.226,0,0,0,1.227,1.226h4.906a1.226,1.226,0,0,0,1.226-1.226v-2.453A2.047,2.047,0,0,0,173.315,104Zm1.227,4.5a.409.409,0,0,1-.409.409h-4.906a.409.409,0,0,1-.409-.409v-2.453a1.226,1.226,0,0,1,1.139-1.223,4.092,4.092,0,0,0,3.445,0,1.227,1.227,0,0,1,1.139,1.223Z" transform="translate(-168 -104)"/></g><g transform="translate(18.398 13.492)"><path class="a" d="M362.453,264a2.453,2.453,0,1,0,2.453,2.453A2.453,2.453,0,0,0,362.453,264Zm0,4.088a1.635,1.635,0,1,1,1.635-1.635A1.635,1.635,0,0,1,362.453,268.088Z" transform="translate(-360 -264)"/></g><g transform="translate(17.171 18.806)"><path class="a" d="M341.315,368h-.1l-.086.041a3.259,3.259,0,0,1-2.905,0l-.086-.041h-.1A2.047,2.047,0,0,0,336,370.044V372.5a1.226,1.226,0,0,0,1.227,1.226h4.906a1.226,1.226,0,0,0,1.227-1.226v-2.453A2.047,2.047,0,0,0,341.315,368Zm1.227,4.5a.409.409,0,0,1-.409.409h-4.906a.409.409,0,0,1-.409-.409v-2.453a1.226,1.226,0,0,1,1.139-1.223,4.091,4.091,0,0,0,3.445,0,1.227,1.227,0,0,1,1.139,1.223Z" transform="translate(-336 -368)"/></g><g transform="translate(1.227 13.492)"><path class="a" d="M26.453,264a2.453,2.453,0,1,0,2.453,2.453A2.453,2.453,0,0,0,26.453,264Zm0,4.088a1.635,1.635,0,1,1,1.635-1.635A1.635,1.635,0,0,1,26.453,268.088Z" transform="translate(-24 -264)"/></g><g transform="translate(0 18.806)"><path class="a" d="M5.315,368h-.1l-.086.041a3.259,3.259,0,0,1-2.905,0L2.141,368h-.1A2.047,2.047,0,0,0,0,370.044V372.5a1.226,1.226,0,0,0,1.227,1.226H6.133A1.226,1.226,0,0,0,7.359,372.5v-2.453A2.047,2.047,0,0,0,5.315,368Zm1.227,4.5a.409.409,0,0,1-.409.409H1.227a.409.409,0,0,1-.409-.409v-2.453a1.226,1.226,0,0,1,1.139-1.223,4.091,4.091,0,0,0,3.445,0,1.226,1.226,0,0,1,1.139,1.223Z" transform="translate(0 -368)"/></g><g transform="translate(8.177 20.033)"><path class="a" d="M168.142,392.725h0a.409.409,0,0,0-.536-.216h0a9.069,9.069,0,0,1-5.831.4l.383-.112a.409.409,0,1,0-.23-.785l-1.635.48c-.006,0-.011.007-.016.009a.405.405,0,0,0-.105.058.358.358,0,0,0-.041.026.4.4,0,0,0-.1.139.41.41,0,0,0-.031.169,1.261,1.261,0,0,0,.041.164c0,.006,0,.012,0,.018l.818,1.565a.409.409,0,0,0,.725-.379l-.333-.636a9.841,9.841,0,0,0,6.672-.363A.409.409,0,0,0,168.142,392.725Z" transform="translate(-159.998 -391.995)"/></g><g transform="translate(15.536 3.2)"><path class="a" d="M311.646,70.171a.409.409,0,0,0-.578,0l-.578.578a9.8,9.8,0,0,0-5.922-8.095.409.409,0,0,0-.321.752,8.981,8.981,0,0,1,5.408,7.225l-.461-.461a.409.409,0,0,0-.578.578l1.227,1.227a.409.409,0,0,0,.578,0h0l1.227-1.227A.409.409,0,0,0,311.646,70.171Z" transform="translate(-303.998 -62.622)"/></g><g transform="translate(2.453 2.46)"><path class="a" d="M54.529,49.215a.38.38,0,0,0-.011-.071s0-.006-.006-.01,0-.007,0-.01a.393.393,0,0,0-.038-.056A.413.413,0,0,0,54.428,49a.384.384,0,0,0-.08-.054.361.361,0,0,0-.046-.033l-1.635-.747a.409.409,0,0,0-.339.743l.847.387A9.8,9.8,0,0,0,48,57.94a.409.409,0,1,0,.818,0,8.98,8.98,0,0,1,4.425-7.745l-.3.618a.409.409,0,0,0,.191.545.4.4,0,0,0,.177.041.409.409,0,0,0,.368-.232L54.5,49.46a.019.019,0,0,1,0-.013.393.393,0,0,0,.022-.087.423.423,0,0,0,.016-.067A.408.408,0,0,0,54.529,49.215Z" transform="translate(-48 -48.134)"/></g></svg>