<svg xmlns="http://www.w3.org/2000/svg" width="24.53" height="24.53" viewBox="0 0 24.53 24.53"><defs><style>.a{fill:#a2a3b7;}</style></defs><path class="a" d="M9.454,8.177H1.789A1.791,1.791,0,0,1,0,6.388v-4.6A1.791,1.791,0,0,1,1.789,0H9.454a1.791,1.791,0,0,1,1.789,1.789v4.6A1.791,1.791,0,0,1,9.454,8.177ZM1.789,1.533a.256.256,0,0,0-.255.255v4.6a.256.256,0,0,0,.255.256H9.454a.256.256,0,0,0,.256-.256v-4.6a.256.256,0,0,0-.256-.255Zm0,0" transform="translate(0 0)"/><path class="a" d="M9.454,227.641H1.789A1.791,1.791,0,0,1,0,225.853V215.121a1.791,1.791,0,0,1,1.789-1.789H9.454a1.791,1.791,0,0,1,1.789,1.789v10.732A1.791,1.791,0,0,1,9.454,227.641ZM1.789,214.865a.256.256,0,0,0-.255.256v10.732a.256.256,0,0,0,.255.255H9.454a.256.256,0,0,0,.256-.255V215.121a.256.256,0,0,0-.256-.256Zm0,0" transform="translate(0 -203.111)"/><path class="a" d="M286.786,349.509h-7.666a1.791,1.791,0,0,1-1.789-1.789v-4.6a1.791,1.791,0,0,1,1.789-1.789h7.666a1.791,1.791,0,0,1,1.789,1.789v4.6A1.791,1.791,0,0,1,286.786,349.509Zm-7.666-6.644a.256.256,0,0,0-.256.256v4.6a.256.256,0,0,0,.256.255h7.666a.256.256,0,0,0,.255-.255v-4.6a.256.256,0,0,0-.255-.256Zm0,0" transform="translate(-264.045 -324.979)"/><path class="a" d="M286.786,14.309h-7.666a1.791,1.791,0,0,1-1.789-1.789V1.789A1.791,1.791,0,0,1,279.121,0h7.666a1.791,1.791,0,0,1,1.789,1.789V12.521A1.791,1.791,0,0,1,286.786,14.309ZM279.121,1.533a.256.256,0,0,0-.256.255V12.521a.256.256,0,0,0,.256.256h7.666a.256.256,0,0,0,.255-.256V1.789a.256.256,0,0,0-.255-.255Zm0,0" transform="translate(-264.045 0)"/></svg>