<svg xmlns="http://www.w3.org/2000/svg" width="18.114" height="18.017" viewBox="0 0 18.114 18.017"><defs><style>.a{fill:#99ca3c;}</style></defs><path class="a" d="M17.593,29.207a.474.474,0,0,0-.475.474V33.89a1.425,1.425,0,0,1-1.424,1.422H2.374A1.425,1.425,0,0,1,.949,33.89V21.538a1.425,1.425,0,0,1,1.424-1.422H6.589a.474.474,0,1,0,0-.948H2.374A2.374,2.374,0,0,0,0,21.538V33.89a2.374,2.374,0,0,0,2.374,2.37h13.32a2.374,2.374,0,0,0,2.374-2.37V29.681A.474.474,0,0,0,17.593,29.207Zm0,0" transform="translate(0 -18.243)"/><path class="a" d="M156.367,39.475l7.147-7.147,2.305,2.305-7.147,7.147Zm0,0" transform="translate(-149.275 -30.759)"/><path class="a" d="M132.543,199.766l2.547-.706-1.842-1.842Zm0,0" transform="translate(-126.281 -187.915)"/><path class="a" d="M318.777.626a1.225,1.225,0,0,0-1.731,0l-.519.519,2.3,2.305.519-.519a1.225,1.225,0,0,0,0-1.731Zm0,0" transform="translate(-301.595 -0.269)"/></svg>