<svg xmlns="http://www.w3.org/2000/svg" width="23.518" height="23.559" viewBox="0 0 23.518 23.559"><defs><style>.a{fill:#a2a3b7;}</style></defs><g transform="translate(-0.44)"><g transform="translate(0.44)"><g transform="translate(0)"><path class="a" d="M11.19,21.678H3.2a.919.919,0,0,1-.875-1.2,7.087,7.087,0,0,1,6.733-4.794,6.871,6.871,0,0,1,3.95,1.239.919.919,0,1,0,1.051-1.507,8.729,8.729,0,0,0-1.832-.978,4.676,4.676,0,0,0,1.521-3.085,6.915,6.915,0,0,1,8.768-.717.919.919,0,1,0,1.051-1.507,8.729,8.729,0,0,0-1.832-.978,4.685,4.685,0,1,0-6.308-.01q-.192.074-.382.157a8.721,8.721,0,0,0-1.618.929A4.684,4.684,0,1,0,5.909,14.42a8.834,8.834,0,0,0-5.334,5.5,2.756,2.756,0,0,0,2.624,3.6H11.19a.919.919,0,0,0,0-1.837ZM18.585,1.837a2.848,2.848,0,1,1-2.848,2.848A2.851,2.851,0,0,1,18.585,1.837ZM9.077,8.124A2.848,2.848,0,1,1,6.23,10.971,2.851,2.851,0,0,1,9.077,8.124Z" transform="translate(-0.44)"/><path class="a" d="M274.108,322.521a.919.919,0,0,0-1.282.212l-4.528,6.324a.525.525,0,0,1-.755.039l-2.931-2.815a.919.919,0,0,0-1.272,1.325l2.934,2.817a2.368,2.368,0,0,0,1.63.651q.078,0,.156-.005a2.368,2.368,0,0,0,1.684-.877l.031-.041,4.546-6.35A.918.918,0,0,0,274.108,322.521Z" transform="translate(-250.973 -307.517)"/></g></g></g></svg>