<svg xmlns="http://www.w3.org/2000/svg" width="24.53" height="21.56" viewBox="0 0 24.53 21.56"><defs><style>.a{fill:#a2a3b7;}</style></defs><path class="a" d="M23.816,2.875H17.3V2.156A2.158,2.158,0,0,0,15.14,0H9.391A2.158,2.158,0,0,0,7.235,2.156v.719H.719A.721.721,0,0,0,0,3.593V19.4A2.158,2.158,0,0,0,2.156,21.56H22.374A2.158,2.158,0,0,0,24.53,19.4V3.606a.7.7,0,0,0-.714-.731ZM8.672,2.156a.72.72,0,0,1,.719-.719H15.14a.72.72,0,0,1,.719.719v.719H8.672ZM22.814,4.312l-2.232,6.7a.717.717,0,0,1-.682.491H15.859V10.78a.719.719,0,0,0-.719-.719H9.391a.719.719,0,0,0-.719.719V11.5H4.629a.717.717,0,0,1-.682-.491l-2.232-6.7ZM14.421,11.5v1.437H10.109V11.5ZM23.093,19.4a.72.72,0,0,1-.719.719H2.156a.72.72,0,0,1-.719-.719V8.022l1.147,3.44a2.153,2.153,0,0,0,2.045,1.474H8.672v.719a.719.719,0,0,0,.719.719H15.14a.719.719,0,0,0,.719-.719v-.719H19.9a2.153,2.153,0,0,0,2.045-1.474l1.147-3.44Zm0,0" transform="translate(0 0)"/></svg>