<svg xmlns="http://www.w3.org/2000/svg" width="24" height="28.305" viewBox="0 0 24 28.305"><defs><style>.a{fill:#a2a3b7;}</style></defs><g transform="translate(-38.937)"><g transform="translate(38.937)"><path class="a" d="M57.155,0H40.624a1.689,1.689,0,0,0-1.687,1.687V7.422a.562.562,0,0,0,1.125,0V1.687a.563.563,0,0,1,.562-.562H57.155a.563.563,0,0,1,.562.562V22.6a.563.563,0,0,1-.562.562H40.624a.563.563,0,0,1-.562-.562V12.164a.562.562,0,0,0-1.125,0V22.6a1.689,1.689,0,0,0,1.687,1.687H57.155A1.689,1.689,0,0,0,58.842,22.6V1.687A1.689,1.689,0,0,0,57.155,0Z" transform="translate(-38.937 0)"/></g><g transform="translate(38.937 9.214)"><path class="a" d="M39.9,166.944a.563.563,0,1,0,.165.4A.566.566,0,0,0,39.9,166.944Z" transform="translate(-38.937 -166.78)"/></g><g transform="translate(41.189 24.935)"><path class="a" d="M79.956,452.225a.562.562,0,1,0,.165.4A.565.565,0,0,0,79.956,452.225Z" transform="translate(-78.996 -452.06)"/></g><g transform="translate(43.028 2.253)"><path class="a" d="M136.094,40.063a.557.557,0,0,0-.562.551v21.6a.557.557,0,0,1-.562.551H119.562a.551.551,0,1,0,0,1.1h15.407a1.672,1.672,0,0,0,1.687-1.653v-21.6A.557.557,0,0,0,136.094,40.063Z" transform="translate(-119 -40.063)"/></g><g transform="translate(43.032 4.014)"><path class="a" d="M138.406,80a.562.562,0,0,0-.562.562V102.6a.563.563,0,0,1-.562.562H119.625a.562.562,0,1,0,0,1.125h17.656a1.689,1.689,0,0,0,1.687-1.687V80.562A.562.562,0,0,0,138.406,80Z" transform="translate(-119.063 -80)"/></g><g transform="translate(42.086 4.161)"><path class="a" d="M100.9,74H95.5a.562.562,0,0,0-.562.562v5.4a.562.562,0,0,0,.562.562h5.4a.562.562,0,0,0,.562-.562v-5.4A.562.562,0,0,0,100.9,74Zm-.562,5.4H96.062V75.125h4.273Z" transform="translate(-94.937 -74)"/></g><g transform="translate(42.292 12.826)"><path class="a" d="M102.548,232.638a.562.562,0,0,0-.8,0l-1.495,1.495-.7-.7a.562.562,0,1,0-.8.8l1.093,1.093a.562.562,0,0,0,.8,0l1.892-1.892A.562.562,0,0,0,102.548,232.638Z" transform="translate(-98.603 -232.474)"/></g><g transform="translate(48.097 13.756)"><path class="a" d="M213.059,249H206.5a.562.562,0,0,0,0,1.125h6.56a.562.562,0,0,0,0-1.125Z" transform="translate(-205.937 -249)"/></g><g transform="translate(50.385 4.161)"><path class="a" d="M251.435,74H247.5a.562.562,0,1,0,0,1.125h3.936a.562.562,0,1,0,0-1.125Z" transform="translate(-246.937 -74)"/></g><g transform="translate(50.385 6.74)"><path class="a" d="M251.435,122H247.5a.562.562,0,0,0,0,1.125h3.936a.562.562,0,1,0,0-1.125Z" transform="translate(-246.937 -122)"/></g><g transform="translate(50.385 9.392)"><path class="a" d="M251.435,170H247.5a.562.562,0,0,0,0,1.125h3.936a.562.562,0,1,0,0-1.125Z" transform="translate(-246.937 -170)"/></g><g transform="translate(42.292 17.04)"><path class="a" d="M102.548,309.005a.562.562,0,0,0-.8,0l-1.495,1.495-.7-.7a.562.562,0,1,0-.8.8l1.093,1.093a.562.562,0,0,0,.8,0l1.892-1.892A.562.562,0,0,0,102.548,309.005Z" transform="translate(-98.603 -308.841)"/></g><g transform="translate(48.097 17.955)"><path class="a" d="M213.059,325H206.5a.562.562,0,1,0,0,1.125h6.56a.562.562,0,1,0,0-1.125Z" transform="translate(-205.937 -325)"/></g></g></svg>